<svg class="injected-svg" id="svg-3d60e8db-631a-4759-a9c6-1c275b41d279" height="95px" width="240px" viewBox="0 0 240 158" xmlns="http://www.w3.org/2000/svg"><path xmlns="http://www.w3.org/2000/svg" id="SvgjsPath24373172" d="M1.44 0L3.04 0L3.04-7.50L7.14-7.50L7.14-9L1.44-9ZM7.46-1.08C7.46-0.48 7.90 0.06 8.60 0.06C9.22 0.06 9.66-0.48 9.66-1.08C9.66-1.60 9.22-2.14 8.60-2.14C7.90-2.14 7.46-1.60 7.46-1.08ZM16.36 0L18.06 0L18.06-11.26L23.08-4.36L23.34-4.36L28.30-11.32L28.30 0L30 0L30-14L28.38-14L23.34-6.82L18.08-14L16.36-14ZM32.94-4.50C32.94-1.80 34.86 0.20 37.74 0.20C40.62 0.20 42.54-1.80 42.54-4.50C42.54-7.20 40.62-9.20 37.74-9.20C34.86-9.20 32.94-7.20 32.94-4.50ZM34.64-4.50C34.64-6.40 35.98-7.70 37.74-7.70C39.54-7.70 40.84-6.38 40.84-4.50C40.84-2.58 39.54-1.30 37.74-1.30C35.94-1.30 34.64-2.62 34.64-4.50ZM44.84 0L46.44 0L46.44-7.50L50.54-7.50L50.54-9L44.84-9ZM53.68 0L58.88-6.70L58.88 0L60.48 0L60.48-9L58.88-9L53.68-2.30L53.68-9L52.08-9L52.08 0ZM69.54 0L71.14 0L71.14-9L64.88-9L64.72-6.20C64.50-2.04 63.22-1.38 62.54-1.44L62.66 0.12C64.52 0.12 65.88-0.76 66.28-5.88L66.38-7.40L69.54-7.40ZM81.12-2.24C80.54-1.70 79.52-1.30 78.36-1.30C76.60-1.30 75.36-2.30 75.22-4L82.14-4C82.20-4.28 82.24-4.64 82.24-5.08C82.24-7.56 80.38-9.20 78.06-9.20C75.10-9.20 73.42-7.12 73.42-4.50C73.42-1.66 75.32 0.20 78.24 0.20C79.44 0.20 80.74-0.18 81.62-0.98ZM77.98-7.70C79.54-7.70 80.50-6.78 80.58-5.30L75.12-5.30C75.30-6.68 76.34-7.70 77.98-7.70ZM84.42 0C85.24 0 86.60 0.08 87.72 0.08C90.52 0.08 91.86-0.84 91.86-2.54C91.86-3.66 91.20-4.40 89.76-4.66L89.76-4.70C90.84-4.86 91.56-5.70 91.56-6.76C91.56-8.38 90.20-9.08 87.68-9.08C86.38-9.08 85.20-9 84.42-9ZM87.94-4.04C89.38-4.04 90.16-3.60 90.16-2.66C90.16-1.72 89.34-1.22 87.86-1.22C87.14-1.22 86.50-1.26 86.02-1.28L86.02-4.04ZM87.80-7.78C88.96-7.78 89.86-7.42 89.86-6.44C89.86-5.56 89.10-5.04 88.04-5.04L86.02-5.04L86.02-7.72C86.42-7.74 87.08-7.78 87.80-7.78Z" fill="#343a40" fontsize="20" transform="matrix(1,0,0,1,54.35,128.90000000000003)"></path><path xmlns="http://www.w3.org/2000/svg" id="SvgjsPath24373146" d="M27.22-42.28C27.22-42.90 26.72-43.40 26.10-43.40L3.84-43.34C3.22-43.34 2.73-42.78 2.73-42.16L2.85-39.68C2.85-39.12 3.29-38.63 3.91-38.63L4.46-38.63C5.08-38.56 5.52-38.13 5.52-37.51C5.46-27.71 5.58-10.23 5.58-5.83C5.58-5.27 5.15-4.77 4.53-4.71L3.53-4.65C2.91-4.65 2.48-4.34 2.54-3.72L2.54-0.87C2.54-0.31 3.10 0 3.66 0.06C6.63 0.12 15.31 0.43 18.79 0C22.69-0.43 26.85-2.29 27.96-6.51C28.77-9.67 28.40-13.39 28.46-16.68C28.52-18.97 27.78-21.89 26.78-23.87C24.61-28.09 19.90-29.70 15.13-29.45C14.51-29.45 13.89-29.39 13.33-29.39C12.65-29.39 12.15-29.95 12.15-30.63C12.15-32.86 12.28-36.02 12.28-37.45C12.28-38.01 12.77-38.50 13.39-38.50L21.51-38.69C22.13-38.69 22.63-38.19 22.63-37.57C22.63-37.01 23.13-36.52 23.75-36.52L26.04-36.52C26.60-36.52 27.09-37.01 27.09-37.63ZM21.95-9.11C21.58-5.21 16.99-4.90 13.21-5.15C12.65-5.21 12.28-5.64 12.21-6.20C12.15-11.59 11.78-16.99 12.03-22.57C12.03-23.00 12.34-23.44 12.83-23.62C14.94-24.37 18.66-23.81 20.15-22.20C21.82-20.34 21.82-17.73 21.89-15.31C21.95-13.14 21.95-11.04 21.95-9.11ZM33.85-33.91C33.29-33.91 32.86-33.48 32.86-32.92C32.92-31.74 32.92-30.38 32.98-29.57C32.98-29.14 33.36-28.77 33.85-28.71L34.60-28.71C35.09-28.64 35.53-28.27 35.53-27.78C35.77-17.98 35.40-15.87 35.53-6.39C35.53-5.02 34.91-4.84 34.29-4.84C33.73-4.84 33.23-4.40 33.23-3.84C33.23-2.91 33.29-1.98 33.29-0.93C33.29-0.37 33.73 0.06 34.29 0.06C36.46 0.06 38.01 0.12 39.62 0.06C45.07-0.12 53.32 0.12 54.62-7.44C56.48-16.93 52.95-23.25 42.47-23.93C41.91-23.93 41.35-24.43 41.35-24.99C41.23-26.23 41.29-26.41 41.29-27.34C41.29-28.27 41.79-28.77 42.66-28.77C44.33-28.77 44.45-29.45 44.45-30.75C44.52-31.68 44.52-32.12 44.52-32.98C44.52-33.48 44.14-33.91 43.65-33.91ZM56.17-0.93C56.17-0.43 56.54 0 57.04 0C59.83 0.06 63.30 0.06 65.91 0.06C66.40 0.06 66.77-0.37 66.77-0.87C66.84-1.74 66.77-2.91 66.71-3.72C66.71-4.22 66.28-4.65 65.78-4.65C65.53-4.71 65.29-4.71 65.10-4.71C64.60-4.71 64.23-5.08 64.17-5.58C63.86-15.50 64.23-17.67 63.92-27.84C63.92-28.33 64.36-28.83 64.91-28.77C65.41-28.77 65.84-29.14 65.84-29.70C65.91-30.57 65.97-32.12 65.91-33.17C65.84-33.67 65.47-34.04 64.98-34.10C62.12-34.10 59.71-34.04 56.11-34.04C55.55-34.04 55.18-33.60 55.18-33.11C55.18-32.24 55.24-30.50 55.24-29.70C55.24-29.20 55.68-28.77 56.17-28.77L56.98-28.77C57.54-28.83 57.91-28.40 57.97-27.90C58.09-17.24 58.03-16.06 58.16-5.58C58.16-5.02 57.72-4.59 57.23-4.59L57.16-4.59C56.67-4.59 56.30-4.28 56.23-3.78C56.11-2.85 56.17-1.80 56.17-0.93ZM41.48-17.61C41.48-18.23 41.97-18.72 42.59-18.72C47.80-18.72 47.68-16.49 47.86-11.22C47.80-6.82 46.87-4.65 42.53-4.65C41.91-4.65 41.48-5.08 41.48-5.64C41.29-11.04 41.60-12.34 41.48-17.61ZM84.94-27.34C84.94-28.09 85.56-28.77 86.37-28.77L88.41-28.77C89.16-28.77 89.78-28.21 89.84-27.53L89.90-26.78C90.02-26.10 90.58-25.54 91.26-25.54L93.50-25.48C94.24-25.48 94.92-26.04 94.92-26.85L95.11-32.55C95.11-33.36 94.49-33.98 93.68-33.98L70.74-33.98C69.94-33.98 69.32-33.29 69.32-32.55L69.38-27.59C69.38-26.78 69.94-26.16 70.74-26.16L72.85-26.04C73.66-26.04 74.28-26.60 74.34-27.34L74.34-27.53C74.46-28.21 75.02-28.77 75.76-28.77L77.87-28.77C78.62-28.77 79.24-28.15 79.24-27.40L79.36-6.32C79.36-5.46 78.68-4.77 77.81-4.77L77.56-4.77C76.69-4.77 76.01-4.03 76.01-3.16L76.01-1.36C76.07-0.56 76.76 0.06 77.56 0.06L87.30 0.06C88.16 0.06 88.85-0.62 88.85-1.49L88.85-3.22C88.78-4.09 88.16-4.71 87.36-4.77L86.68-4.77C85.87-4.84 85.19-5.46 85.19-6.32L84.94-27.34ZM120.78-11.78C121.09-14.88 121.33-22.13 119.66-26.47C117.12-33.29 112.47-34.35 109.55-34.29C104.78-34.10 101.56-32.36 99.26-26.97C97.84-23.50 97.77-9.67 99.88-5.52C101.25-2.79 103.85-0.12 106.02 0.37C108.25 0.87 113.52 1.12 116.87-2.60C118.98-4.96 120.34-7.94 120.78-11.78ZM109.12-4.46C106.64-4.65 105.65-7.38 105.15-9.36C104.59-11.35 103.73-22.51 105.90-26.85C107.20-29.39 109.99-29.64 111.79-28.52C112.96-27.78 113.83-25.05 114.20-22.69C115.01-17.92 113.83-9.80 113.77-8.80C113.65-6.76 112.28-4.28 109.12-4.46ZM126.29-4.84C125.74-4.77 125.36-4.34 125.36-3.84L125.43-0.93C125.43-0.37 125.86 0.06 126.42 0.06C129.39 0.06 137.83 0 139.50 0C142.72 0 149.23-2.05 149.36-9.61C149.48-14.57 148.06-16.93 144.96-18.35C144.71-18.41 144.65-18.72 144.89-18.91C145.58-19.28 146.32-19.90 147.13-21.02C149.73-24.49 148.37-30.81 143.22-32.92C138.69-34.47 129.52-33.98 126.42-33.85C125.86-33.85 125.49-33.42 125.49-32.86L125.61-29.88C125.61-29.33 126.05-28.89 126.54-28.89L127.66-28.89C128.15-28.89 128.59-28.46 128.59-27.90C128.84-22.63 128.90-11.78 128.40-5.70C128.40-5.27 127.97-4.84 127.47-4.84ZM134.91-14.63C134.91-15.19 135.35-15.62 135.90-15.62C137.52-15.62 140.00-15.75 141.36-14.07C143.16-11.90 142.91-8.62 141.73-6.57C140.55-4.59 137.58-4.71 135.78-4.84C135.28-4.90 134.91-5.33 134.91-5.83ZM135.16-27.90C135.10-28.46 135.53-28.95 136.09-28.95C137.21-29.02 138.94-28.95 140.00-28.33C142.04-27.09 142.35-24.92 141.55-22.88C140.86-21.14 137.76-21.08 136.21-21.02C135.66-21.02 135.22-21.45 135.16-21.95ZM177.13-4.71C176.58-4.71 176.33-5.27 176.33-6.14C176.33-6.32 176.14-19.59 176.02-22.26C175.65-28.52 174.10-34.78 165.73-34.60C158.84-34.41 156.30-30.19 155.74-28.95C155.62-28.71 155.56-28.52 155.56-28.27C155.56-27.59 155.62-25.48 155.62-25.48C155.56-24.55 156.12-24.24 156.80-24.18L159.77-24.18C160.39-24.18 160.83-24.49 160.83-25.30C160.83-25.67 160.83-27.03 161.01-27.28C161.39-27.78 162.25-30.07 165.79-30.01C169.01-29.95 169.63-28.15 170.00-25.48C170.19-24.12 170.13-21.39 170.07-20.27C170.07-19.78 169.63-19.41 169.14-19.47C168.52-19.53 167.59-19.53 166.16-19.53C161.01-19.47 156.98-17.61 155.19-13.08C153.76-9.55 154.19-4.77 157.17-1.74C158.91 0 160.77 0.43 163.00 0.31C164.24 0.31 167.15 0.06 168.70-1.55C169.26-2.17 169.76-2.79 170.19-3.53C170.31-3.84 170.50-3.84 170.50-3.60C170.56-3.41 170.56-3.22 170.56-3.10C170.56-2.67 170.56-2.29 170.69-1.61C170.75-0.74 171.43 0 172.36 0C172.67 0 177.13 0.06 177.63 0.06C178.31 0.06 179.18-0.25 179.18-1.30L179.18-3.04C179.18-3.84 178.93-4.71 177.94-4.71ZM163.49-5.21C161.51-5.46 160.70-7.44 160.64-9.11C160.58-10.79 160.83-13.14 163.68-14.51C165.17-15.19 167.65-14.88 169.32-14.82C169.76-14.82 170.13-14.45 170.13-14.01C170.19-12.59 170.19-10.23 170.13-9.24C170.00-6.94 165.91-4.84 163.49-5.21ZM205.72 0C206.34-0.06 206.83-0.56 206.77-1.12L206.71-3.72C206.71-4.28 206.27-4.71 205.72-4.77L205.22-4.77C204.60-4.77 204.17-5.27 204.17-5.89C204.41-11.10 204.23-21.70 204.23-28.02C204.23-28.58 204.72-29.08 205.34-29.08L205.53-29.08C206.27-29.08 206.89-29.70 206.89-30.44L206.89-32.61C206.89-33.36 206.27-33.98 205.59-33.98C204.60-34.04 203.36-34.04 202.62-34.04C198.46-33.91 195.98-34.16 191.83-33.91C187.61-33.67 183.71-30.01 183.58-23.31C183.46-18.29 185.01-14.88 189.41-13.52C189.84-13.39 190.03-12.96 189.84-12.59C188.05-8.80 186.81-6.45 186.25-5.33C186.06-4.96 185.75-4.77 185.32-4.77L183.33-4.71C182.78-4.65 182.28-4.22 182.34-3.60L182.34-1.05C182.40-0.43 182.84 0 183.40 0L188.98 0.06C189.35 0.06 189.72-0.12 189.91-0.50C190.96-2.54 194.31-9.18 195.67-11.72C195.86-12.09 196.23-12.28 196.60-12.28C197.41-12.21 196.79-12.15 197.59-12.15C198.09-12.09 198.46-11.72 198.46-11.22L198.46-5.83C198.46-5.27 198.03-4.77 197.47-4.77C196.85-4.71 196.42-4.28 196.42-3.66L196.48-0.99C196.48-0.37 196.97 0.06 197.53 0.06ZM198.52-18.35C198.52-17.73 198.03-17.24 197.47-17.24C194.06-17.24 189.84-17.36 189.72-22.63C189.60-27.96 192.63-29.88 197.66-29.26C198.15-29.20 198.52-28.83 198.52-28.33ZM231.57-4.65C231.20-4.65 230.95-5.08 231.20-5.33L235.60-11.84C235.91-12.21 236.72-12.15 237.03-11.72L240.75-5.70C240.99-5.27 240.68-4.71 240.19-4.71C239.32-4.71 238.64-3.97 238.64-3.10L238.70-1.61C238.76-0.68 239.51 0.06 240.44 0L249.24 0C250.23 0 250.98-0.74 250.98-1.67L250.98-3.22C251.04-4.09 250.36-4.77 249.49-4.77L248.93-4.77C248.19-4.77 247.50-5.15 247.13-5.70L239.75-16.43C239.32-17.11 239.38-17.98 239.88-18.60L246.76-28.02C247.13-28.46 247.75-28.77 248.37-28.77L248.81-28.83C249.67-28.83 250.36-29.57 250.29-30.44L250.23-32.43C250.23-33.29 249.49-34.04 248.56-34.04L240.50-34.04C239.51-34.04 238.70-33.23 238.76-32.24L238.82-30.32C238.89-29.51 239.51-28.89 240.31-28.89C240.75-28.83 240.93-28.33 240.68-28.02L236.96-23.00C236.65-22.69 236.16-22.75 235.91-23.06L232.13-28.27C231.94-28.52 232.13-28.89 232.44-28.95C233.18-29.02 233.80-29.64 233.86-30.38L233.93-32.18C233.99-33.17 233.18-33.98 232.19-33.98L224.01-33.98C223.08-33.98 222.33-33.23 222.27-32.30L222.27-30.38C222.27-29.57 222.95-28.83 223.76-28.83L224.50-28.77C225.06-28.77 225.56-28.46 225.87-28.02L232.56-18.97C233.12-18.23 233.18-17.17 232.62-16.43L225.18-5.64C224.87-5.15 224.32-4.84 223.76-4.77L223.26-4.77C222.52-4.65 221.90-4.03 221.84-3.29L221.84-1.80C221.77-0.87 222.52 0 223.51 0L231.38 0.06C232.31 0.06 233.12-0.74 233.12-1.67L233.12-3.10C233.12-3.97 232.44-4.65 231.57-4.65ZM263.25-13.83C263.07-13.52 262.63-13.64 262.63-14.01C262.45-19.10 262.76-23.87 262.76-27.65C262.76-28.21 263.13-28.64 263.69-28.64L265.11-28.83C265.55-28.89 265.92-29.26 265.98-29.70C266.04-30.57 266.10-32.12 266.04-33.05C266.04-33.54 265.61-33.91 265.11-33.91C261.70-33.91 257.61-33.85 255.07-33.85L254.63-33.85C254.01-33.91 253.52-33.42 253.58-32.86C253.64-31.99 253.58-30.57 253.64-29.70C253.64-29.20 254.08-28.77 254.63-28.83C254.94-28.83 255.25-28.83 255.56-28.89C256.12-28.89 256.56-28.46 256.56-27.90C256.56-19.96 256.62-13.83 256.62-5.64C256.62-5.02 256.12-4.59 255.50-4.65L255.13-4.65C254.63-4.71 254.20-4.34 254.20-3.84C254.14-2.79 254.14-1.55 254.20-0.74C254.20-0.31 254.57 0.06 254.94 0.06C257.18 0.06 258.42 0 260.59 0C260.90 0 261.21-0.12 261.39-0.37C263.87-3.84 270.94-16.80 273.30-20.71C273.48-21.02 273.92-20.89 273.92-20.52C274.10-14.69 273.79-11.04 274.04-5.52C274.04-5.02 273.61-4.71 273.11-4.71C270.75-4.71 271.56-3.53 271.56-0.87C271.56-0.37 271.99 0 272.49 0C274.78 0.06 280.43 0.12 282.22 0C282.72-0.06 283.09-0.43 283.09-0.87C283.22-1.67 283.15-2.85 283.09-3.66C283.09-4.15 282.66-4.53 282.16-4.59L281.05-4.59C280.55-4.65 280.18-5.02 280.12-5.52C279.81-12.40 279.87-20.65 279.87-27.65C279.87-28.27 280.36-28.71 280.98-28.64L281.05-28.64C281.60-28.58 282.10-29.02 282.16-29.57C282.16-30.50 282.29-31.81 282.29-32.92C282.29-33.42 281.85-33.85 281.29-33.85L275.34-33.85C275.03-33.85 274.78-33.73 274.60-33.48C272.80-31.12 266.10-17.92 263.25-13.83ZM304.67-0.93C304.85-0.37 305.35 0 305.97 0.06L307.40 0.06C308.02 0.06 308.33-0.50 308.57-1.05C310.19-3.97 314.65-16.31 316.26-20.27C316.32-20.40 316.76-20.21 316.76-20.03C316.82-13.33 316.76-7.38 316.82-5.52C316.82-5.08 316.51-4.77 316.08-4.71L315.08-4.71C314.40-4.65 313.91-4.09 313.91-3.41C313.91-3.10 313.97-1.49 313.97-1.24C314.03-0.62 314.59-0.06 315.27-0.06L324.63-0.06C325.44-0.06 326.00-0.68 326.06-1.43L326.06-3.41C326.12-4.15 325.50-4.77 324.76-4.77C324.45-4.77 324.14-4.84 323.83-4.84C323.45-4.90 323.14-5.21 323.14-5.58C323.14-12.65 322.90-21.45 322.83-27.22C322.83-28.09 323.52-28.77 324.38-28.83L325.07-28.83C326.00-28.89 326.68-29.70 326.62-30.57L326.55-32.43C326.49-33.29 325.75-33.91 324.94-33.91C321.90-33.91 321.04-33.85 318.25-33.98C317.38-33.98 316.57-33.42 316.26-32.61C312.67-23.75 310.81-19.59 307.09-10.23C306.90-9.80 306.34-9.80 306.16-10.23C302.25-18.97 297.48-31.74 296.98-32.92C296.73-33.48 296.17-33.91 295.55-33.91L288.55-33.91C287.62-33.91 286.94-33.11 286.94-32.24L287.00-30.32C287.06-29.45 287.68-28.83 288.55-28.83C288.86-28.83 289.23-28.83 289.48-28.77C289.91-28.77 290.22-28.40 290.22-27.96C290.10-23.87 290.10-9.30 290.10-5.58C290.10-5.08 289.66-4.71 289.17-4.71L288.55-4.71C287.74-4.71 287.00-3.97 287.00-3.10L287.00-1.55C287.00-0.68 287.68 0 288.55 0L297.54-0.06C298.41-0.06 299.09-0.81 299.09-1.67L299.03-3.16C299.03-3.91 298.41-4.59 297.60-4.65L297.17-4.71C296.73-4.77 296.36-5.15 296.36-5.58L296.42-20.03C296.42-20.27 296.73-20.34 296.86-20.15L304.67-0.93ZM340.13-13.83C339.95-13.52 339.51-13.64 339.51-14.01C339.33-19.10 339.64-23.87 339.64-27.65C339.64-28.21 340.01-28.64 340.57-28.64L341.99-28.83C342.43-28.89 342.80-29.26 342.86-29.70C342.92-30.57 342.98-32.12 342.92-33.05C342.92-33.54 342.49-33.91 341.99-33.91C338.58-33.91 334.49-33.85 331.95-33.85L331.51-33.85C330.89-33.91 330.40-33.42 330.46-32.86C330.52-31.99 330.46-30.57 330.52-29.70C330.52-29.20 330.96-28.77 331.51-28.83C331.82-28.83 332.13-28.83 332.44-28.89C333.00-28.89 333.44-28.46 333.44-27.90C333.44-19.96 333.50-13.83 333.50-5.64C333.50-5.02 333.00-4.59 332.38-4.65L332.01-4.65C331.51-4.71 331.08-4.34 331.08-3.84C331.02-2.79 331.02-1.55 331.08-0.74C331.08-0.31 331.45 0.06 331.82 0.06C334.06 0.06 335.30 0 337.47 0C337.78 0 338.09-0.12 338.27-0.37C340.75-3.84 347.82-16.80 350.18-20.71C350.36-21.02 350.80-20.89 350.80-20.52C350.98-14.69 350.67-11.04 350.92-5.52C350.92-5.02 350.49-4.71 349.99-4.71C347.63-4.71 348.44-3.53 348.44-0.87C348.44-0.37 348.87 0 349.37 0C351.66 0.06 357.31 0.12 359.10 0C359.60-0.06 359.97-0.43 359.97-0.87C360.10-1.67 360.03-2.85 359.97-3.66C359.97-4.15 359.54-4.53 359.04-4.59L357.93-4.59C357.43-4.65 357.06-5.02 357.00-5.52C356.69-12.40 356.75-20.65 356.75-27.65C356.75-28.27 357.24-28.71 357.86-28.64L357.93-28.64C358.48-28.58 358.98-29.02 359.04-29.57C359.04-30.50 359.17-31.81 359.17-32.92C359.17-33.42 358.73-33.85 358.17-33.85L352.22-33.85C351.91-33.85 351.66-33.73 351.48-33.48C349.68-31.12 342.98-17.92 340.13-13.83ZM386.63 0C387.25-0.06 387.75-0.56 387.69-1.12L387.62-3.72C387.62-4.28 387.19-4.71 386.63-4.77L386.14-4.77C385.52-4.77 385.08-5.27 385.08-5.89C385.33-11.10 385.14-21.70 385.14-28.02C385.14-28.58 385.64-29.08 386.26-29.08L386.45-29.08C387.19-29.08 387.81-29.70 387.81-30.44L387.81-32.61C387.81-33.36 387.19-33.98 386.51-33.98C385.52-34.04 384.28-34.04 383.53-34.04C379.38-33.91 376.90-34.16 372.74-33.91C368.53-33.67 364.62-30.01 364.50-23.31C364.37-18.29 365.92-14.88 370.33-13.52C370.76-13.39 370.95-12.96 370.76-12.59C368.96-8.80 367.72-6.45 367.16-5.33C366.98-4.96 366.67-4.77 366.23-4.77L364.25-4.71C363.69-4.65 363.20-4.22 363.26-3.60L363.26-1.05C363.32-0.43 363.75 0 364.31 0L369.89 0.06C370.26 0.06 370.64-0.12 370.82-0.50C371.88-2.54 375.22-9.18 376.59-11.72C376.77-12.09 377.15-12.28 377.52-12.28C378.32-12.21 377.70-12.15 378.51-12.15C379.01-12.09 379.38-11.72 379.38-11.22L379.38-5.83C379.38-5.27 378.94-4.77 378.39-4.77C377.77-4.71 377.33-4.28 377.33-3.66L377.39-0.99C377.39-0.37 377.89 0.06 378.45 0.06ZM379.44-18.35C379.44-17.73 378.94-17.24 378.39-17.24C374.98-17.24 370.76-17.36 370.64-22.63C370.51-27.96 373.55-29.88 378.57-29.26C379.07-29.20 379.44-28.83 379.44-28.33Z" fill="#5984d6" fontsize="62" transform="matrix(1,0,0,1,-75,92.8739068906953)"></path></svg>